<?xml version="1.0" encoding="UTF-8" standalone="no"?>
<!DOCTYPE svg PUBLIC "-//W3C//DTD SVG 1.1//EN"
 "http://www.w3.org/Graphics/SVG/1.1/DTD/svg11.dtd">
<!-- Generated by graphviz version 2.43.0 (0)
 -->
<!-- Title: AppException Pages: 1 -->
<svg width="180pt" height="149pt"
 viewBox="0.00 0.00 180.00 149.00" xmlns="http://www.w3.org/2000/svg" xmlns:xlink="http://www.w3.org/1999/xlink">
<g id="graph0" class="graph" transform="scale(1 1) rotate(0) translate(4 145)">
<title>AppException</title>
<!-- Node1 -->
<g id="Node000001" class="node">
<title>Node1</title>
<g id="a_Node000001"><a xlink:title=" ">
<polygon fill="#999999" stroke="#666666" points="104.5,-19 21.5,-19 21.5,0 104.5,0 104.5,-19"/>
<text text-anchor="middle" x="63" y="-7" font-family="Helvetica,sans-Serif" font-size="10.00">AppException</text>
</a>
</g>
</g>
<!-- Node2 -->
<g id="Node000002" class="node">
<title>Node2</title>
<g id="a_Node000002"><a xlink:title=" ">
<polygon fill="white" stroke="#666666" points="72,-85 0,-85 0,-66 72,-66 72,-85"/>
<text text-anchor="middle" x="36" y="-73" font-family="Helvetica,sans-Serif" font-size="10.00">QException</text>
</a>
</g>
</g>
<!-- Node2&#45;&gt;Node1 -->
<g id="edge1_Node000001_Node000002" class="edge">
<title>Node2&#45;&gt;Node1</title>
<g id="a_edge1_Node000001_Node000002"><a xlink:title=" ">
<path fill="none" stroke="#63b8ff" d="M43.67,-56.32C48.77,-44.24 55.23,-28.91 59.24,-19.41"/>
<polygon fill="#63b8ff" stroke="#63b8ff" points="40.3,-55.29 39.64,-65.87 46.75,-58.02 40.3,-55.29"/>
</a>
</g>
</g>
<!-- Node3 -->
<g id="Node000003" class="node">
<title>Node3</title>
<g id="a_Node000003"><a xlink:title=" ">
<polygon fill="white" stroke="#666666" points="134,-85 90,-85 90,-66 134,-66 134,-85"/>
<text text-anchor="middle" x="112" y="-73" font-family="Helvetica,sans-Serif" font-size="10.00">string</text>
</a>
</g>
</g>
<!-- Node3&#45;&gt;Node1 -->
<g id="edge2_Node000001_Node000003" class="edge">
<title>Node3&#45;&gt;Node1</title>
<g id="a_edge2_Node000001_Node000003"><a xlink:title=" ">
<path fill="none" stroke="#9a32cd" stroke-dasharray="5,2" d="M99.19,-57.77C89.79,-45.49 77.39,-29.3 69.82,-19.41"/>
<polygon fill="#9a32cd" stroke="#9a32cd" points="96.53,-60.06 105.39,-65.87 102.09,-55.8 96.53,-60.06"/>
</a>
</g>
<text text-anchor="middle" x="105" y="-40" font-family="Helvetica,sans-Serif" font-size="10.00" fill="grey"> msg_</text>
</g>
<!-- Node4 -->
<g id="Node000004" class="node">
<title>Node4</title>
<g id="a_Node000004"><a xlink:title=" ">
<polygon fill="white" stroke="#666666" points="172,-141 52,-141 52,-122 172,-122 172,-141"/>
<text text-anchor="middle" x="112" y="-129" font-family="Helvetica,sans-Serif" font-size="10.00">basic_string&lt; Char &gt;</text>
</a>
</g>
</g>
<!-- Node4&#45;&gt;Node3 -->
<g id="edge3_Node000003_Node000004" class="edge">
<title>Node4&#45;&gt;Node3</title>
<g id="a_edge3_Node000003_Node000004"><a xlink:title=" ">
<path fill="none" stroke="#63b8ff" d="M112,-111.3C112,-102.41 112,-92.28 112,-85.25"/>
<polygon fill="#63b8ff" stroke="#63b8ff" points="108.5,-111.58 112,-121.58 115.5,-111.58 108.5,-111.58"/>
</a>
</g>
</g>
</g>
</svg>
