<?xml version="1.0" encoding="UTF-8" standalone="no"?>
<!DOCTYPE svg PUBLIC "-//W3C//DTD SVG 1.1//EN"
 "http://www.w3.org/Graphics/SVG/1.1/DTD/svg11.dtd">
<!-- Generated by graphviz version 2.43.0 (0)
 -->
<!-- Title: Graphical Class Hierarchy Pages: 1 -->
<svg width="345pt" height="28pt"
 viewBox="0.00 0.00 345.00 28.00" xmlns="http://www.w3.org/2000/svg" xmlns:xlink="http://www.w3.org/1999/xlink">
<g id="graph0" class="graph" transform="scale(1 1) rotate(0) translate(4 24)">
<title>Graphical Class Hierarchy</title>
<polygon fill="white" stroke="transparent" points="-4,4 -4,-24 341,-24 341,4 -4,4"/>
<!-- Node4 -->
<g id="node1" class="node">
<title>Node4</title>
<g id="a_node1"><a xlink:title=" ">
<polygon fill="white" stroke="#bfbfbf" points="0,-0.5 0,-19.5 87,-19.5 87,-0.5 0,-0.5"/>
<text text-anchor="middle" x="43.5" y="-7.5" font-family="Helvetica,sans-Serif" font-size="10.00">QMainWindow</text>
</a>
</g>
</g>
<!-- Node0 -->
<g id="node2" class="node">
<title>Node0</title>
<g id="a_node2"><a xlink:href="classMainWindow.html" target="_top" xlink:title="Some class.">
<polygon fill="white" stroke="black" points="123,-0.5 123,-19.5 203,-19.5 203,-0.5 123,-0.5"/>
<text text-anchor="middle" x="163" y="-7.5" font-family="Helvetica,sans-Serif" font-size="10.00">MainWindow</text>
</a>
</g>
</g>
<!-- Node4&#45;&gt;Node0 -->
<g id="edge1" class="edge">
<title>Node4&#45;&gt;Node0</title>
<path fill="none" stroke="midnightblue" d="M97.28,-10C105.93,-10 114.75,-10 122.99,-10"/>
<polygon fill="midnightblue" stroke="midnightblue" points="97.25,-6.5 87.25,-10 97.25,-13.5 97.25,-6.5"/>
</g>
<!-- Node1 -->
<g id="node3" class="node">
<title>Node1</title>
<g id="a_node3"><a xlink:href="classDifferentWindow.html" target="_top" xlink:title=" ">
<polygon fill="white" stroke="black" points="239,-0.5 239,-19.5 337,-19.5 337,-0.5 239,-0.5"/>
<text text-anchor="middle" x="288" y="-7.5" font-family="Helvetica,sans-Serif" font-size="10.00">DifferentWindow</text>
</a>
</g>
</g>
<!-- Node0&#45;&gt;Node1 -->
<g id="edge2" class="edge">
<title>Node0&#45;&gt;Node1</title>
<path fill="none" stroke="midnightblue" d="M213.53,-10C221.81,-10 230.38,-10 238.63,-10"/>
<polygon fill="midnightblue" stroke="midnightblue" points="213.26,-6.5 203.26,-10 213.26,-13.5 213.26,-6.5"/>
</g>
</g>
</svg>
